<?xml version="1.0" encoding="utf-8"?>
<svg viewBox="0 0 500 500" xmlns="http://www.w3.org/2000/svg">
  <path d="M 257.405 85.707 C 259.371 85.707 261.446 85.828 263.493 85.828 L 266.436 85.707 L 266.436 85.909 C 299.404 87.042 331.098 95.283 356.093 114.878 C 383.378 136.267 401.796 170.711 405.565 220.435 C 409.497 273.139 399.245 312.802 387.812 339.344 C 383.082 350.784 376.995 361.623 369.681 371.63 C 374.631 374.326 378.863 376.511 388.124 381.865 C 395.041 385.844 401.876 389.944 407.287 393.611 C 410.041 395.446 412.4 397.119 414.353 398.872 C 415.385 399.75 416.334 400.721 417.187 401.772 C 418.136 402.944 419.424 404.307 419.696 407.624 C 420.28 416.607 417.729 430.39 415.384 443.902 C 413.882 452.382 412.255 460.838 410.501 469.27 L 409.092 476.108 L 44.013 476.108 L 27.197 437.025 L 27.902 431.292 C 28.377 427.26 29.746 426.802 30.465 426.1 C 31.089 425.427 31.631 424.995 32.148 424.536 C 36.947 421.259 41.885 418.157 46.902 415.23 C 55.853 410.052 67.719 403.458 79.652 396.889 C 100.456 385.534 117.381 376.593 124.284 372.924 C 116.757 359.174 111.133 344.476 107.563 329.229 C 104.892 329.229 104.62 329.741 100.917 329 C 89.333 326.529 78.754 320.673 70.539 312.182 C 58.769 300.315 54.727 283.726 56.72 268.419 C 58.538 255.181 65.821 243.296 76.818 235.62 C 69.36 204.858 72.751 183.927 80.508 171.521 C 84.426 164.803 90.305 159.428 97.364 156.105 C 101.474 138.357 113.503 120.96 137.317 108.418 C 163.422 94.689 202.059 86.017 257.405 85.707 Z M 263.453 102.807 C 222.552 103.549 196.798 118.735 180.619 133.96 C 173.548 140.576 167.433 148.132 162.446 156.415 C 165.823 161.756 169.227 170.118 167.152 180.651 C 165.185 190.225 159.896 199.869 156.236 209.579 C 152.547 219.342 150.905 228.365 153.292 234.69 C 157.849 246.908 158.283 255.189 158.283 255.189 L 158.433 260.651 L 122.399 277.589 L 122.209 264.077 C 122.209 264.077 121.572 253.274 117.49 246.706 C 115.523 243.429 113.448 241.595 109.99 240.852 C 106.573 240.152 100.497 240.664 90.556 245.924 L 90.163 246.046 C 81.85 250.024 76.032 259.397 74.581 270.456 C 73.17 281.46 76.426 293.247 83.735 300.584 C 91.547 308.392 99.047 311.278 104.702 312.37 C 110.302 313.504 113.177 312.884 113.177 312.884 L 115.998 312.452 C 118.927 309.588 121.344 306.25 123.145 302.58 L 139.284 310.185 C 134.768 318.655 129.899 323.848 125.45 327.084 C 128.014 337.631 133.75 357.738 143.243 372.182 L 144.423 374.057 C 145.29 375.54 148.031 379.829 155.734 385.52 C 164.168 391.818 177.568 398.306 198.357 399.465 C 198.791 398.723 199.143 397.941 199.66 397.281 C 202.955 393.211 207.444 390.264 212.503 388.851 C 203.465 384.31 195.134 378.496 187.765 371.589 C 170.597 354.435 167.342 333.099 167.342 333.099 L 185.203 330.564 C 185.203 330.564 188.064 347.193 200.908 359.923 C 213.112 372.182 251.071 391.239 293.464 391.239 C 334.217 391.239 352.16 364.563 352.16 364.563 L 352.742 364.968 C 356.675 360.086 363.823 349.862 371.078 332.991 C 380.435 311.319 389.06 279.694 388.274 237.913 C 387.376 238.551 386.417 239.103 385.413 239.558 C 381.519 241.155 377.337 241.94 373.126 241.865 C 363.639 241.954 354.187 240.705 345.053 238.156 L 350.044 221.838 C 357.611 223.861 366.602 225.048 372.487 224.885 C 370.61 221.672 368.711 218.471 366.792 215.283 C 362.25 207.636 357.774 200.286 357.774 200.286 L 373.396 191.79 C 373.396 191.79 377.913 199.208 382.51 206.922 L 386.659 213.989 C 386.069 208.633 385.246 203.305 384.192 198.021 L 383.88 198.101 C 380.272 184.521 370.996 180.731 360.595 178.938 C 350.153 177.143 340.306 178.938 340.306 178.938 L 336.78 162.268 C 336.78 162.268 343.874 160.865 353.489 161.217 C 356.743 161.297 360.242 161.607 363.823 162.228 C 366.956 162.767 370.372 163.671 373.723 164.925 C 367.051 150.49 357.052 137.821 344.538 127.946 C 322.839 110.886 294.36 103.509 263.44 102.807 L 263.453 102.807 Z M 232.832 160.395 C 238.764 160.365 244.68 161.022 250.461 162.349 L 246.379 178.816 C 225.684 174.325 216.463 179.598 210.576 185.384 C 204.678 191.156 203.159 197.791 203.159 197.791 L 185.488 194.285 C 185.488 194.285 187.928 183.159 197.57 173.624 C 204.758 166.516 216.611 160.582 232.79 160.395 L 232.832 160.395 Z M 265.922 193.192 C 265.922 193.192 268.633 200.475 272.051 208.796 C 275.469 217.077 279.904 226.949 281.856 229.889 C 284.42 233.989 285.002 240.34 281.938 244.683 C 278.956 248.537 274.545 251.039 269.692 251.628 C 260.469 253.381 249.159 251.71 235.815 246.275 L 243.002 230.657 C 253.133 234.838 260.659 235.148 264.511 234.69 C 261.042 228.258 257.937 221.64 255.208 214.865 C 251.682 206.3 248.929 198.843 248.929 198.843 L 265.922 193.22 L 265.922 193.192 Z M 320.494 204.278 C 320.494 204.278 321.307 229.254 344.592 249.174 C 357.124 259.869 364.338 266.463 368.149 273.989 C 370.154 277.874 370.605 282.37 369.41 286.572 C 368.053 290.2 365.693 293.368 362.615 295.742 C 356.133 301.204 346.518 305.115 335.41 308.743 C 324.344 312.33 312.519 315.108 302.24 314.865 C 296.857 314.94 291.648 312.973 287.674 309.363 C 284.733 306.355 283.026 302.364 282.887 298.17 C 282.683 294.046 283.464 289.933 285.165 286.167 L 301.805 292.613 C 301.805 292.613 300.829 295.715 300.897 297.306 L 300.937 297.738 C 300.707 297.576 300.544 297.805 302.741 297.887 C 308.709 298.048 319.747 295.904 329.525 292.695 C 339.29 289.498 348.606 284.778 350.558 283.052 C 351.943 281.878 352.051 281.487 352.051 281.649 L 351.779 281.257 C 350.6 278.831 344.551 272.006 332.509 261.743 C 303.65 237.145 302.51 204.777 302.51 204.777 L 320.534 204.278 L 320.494 204.278 Z M 98.612 257.279 L 109.801 270.563 C 109.801 270.563 101.664 275.876 104.063 287.826 L 86.326 290.94 C 82.203 270.253 98.612 257.293 98.612 257.293 L 98.612 257.279 Z M 263.06 308.231 C 288.501 327.677 319.151 323.416 319.151 323.416 L 321.904 340.206 C 321.904 340.206 283.661 345.83 251.75 321.434 L 263.1 308.231 L 263.06 308.231 Z M 358.845 309.215 L 372.352 320.408 C 355.509 338.48 330.379 340.246 330.379 340.246 L 328.698 323.349 C 328.698 323.349 347.657 321.191 358.845 309.215 Z M 257.093 337.981 C 258.666 343.295 261.799 346.073 267.305 348.407 C 272.797 350.753 280.405 351.886 288.108 352.047 C 303.528 352.317 318.404 348.986 318.404 348.986 L 322.649 365.507 C 322.649 365.507 306.09 369.336 287.714 369.013 C 278.19 369.062 268.743 367.314 259.872 363.861 C 250.292 360.104 242.898 352.29 239.706 342.553 L 257.093 337.981 Z M 342.518 399.977 C 341.558 399.993 340.601 400.083 339.656 400.248 L 339.615 400.248 C 339.615 400.248 336.591 401.231 333.214 402.783 C 321.301 408.639 309.914 415.498 299.174 423.282 L 296.707 425.197 L 282.48 425.197 L 247.153 410.052 L 246.989 410.052 C 238.162 405.952 226.498 403.498 220.056 404.509 C 216.801 405.008 215.269 405.952 214.171 407.274 C 213.194 408.61 212.136 411.185 212.8 416.714 L 212.91 417.268 L 212.868 417.861 C 212.598 434.286 212.72 446.586 214.442 452.992 C 215.228 456.188 216.246 457.524 216.923 458.063 C 217.589 458.656 218.375 459.128 221.357 459.128 C 232.031 459.128 247.343 455.217 259.438 451.158 C 266.6 448.748 273.645 446.011 280.555 442.959 L 282.358 442.177 L 312.939 442.177 L 314.35 442.581 C 314.35 442.581 320.276 444.442 328.413 445.412 C 336.496 446.358 346.233 446.047 352.512 443.08 C 352.905 442.877 353.814 442.135 354.817 439.91 C 355.999 436.884 356.743 433.705 357.027 430.47 C 357.896 422.931 357.218 414.07 356.622 409.189 C 356.12 405.048 354.275 403.255 351.06 401.69 C 348.379 400.47 345.45 399.883 342.503 399.977 L 342.518 399.977 Z M 285.979 408.352 L 286.453 408.811 L 290.78 408.811 L 290.847 408.581 L 286.02 408.352 L 285.979 408.352 Z M 174.137 411.967 C 181.161 417.74 188.661 422.891 194.831 426.842 L 194.831 417.59 L 194.913 418.669 L 194.778 416.215 C 187.784 415.394 180.875 413.959 174.137 411.926 L 174.137 411.967 Z" p-id="6069" style=""/>
  <path d="M 424.999 88.512 L 401.986 88.512 C 398.981 88.512 396.909 85.505 397.978 82.699 L 420.845 22.675 C 421.479 21.013 423.073 19.914 424.852 19.914 L 463.441 19.914 C 466.486 19.914 468.561 22.998 467.412 25.818 L 454.097 58.501 L 479.163 58.501 C 482.849 58.501 484.817 62.846 482.385 65.616 L 420.929 135.644 C 417.941 139.048 412.402 136.098 413.561 131.72 L 424.999 88.512 Z" p-id="6993" style=""/>
</svg>